<svg width="12" height="9" viewBox="0 0 12 9" fill="none" xmlns="http://www.w3.org/2000/svg">
<path d="M10.2934 0.293407L4.00041 6.58641L1.70741 4.29341C1.5188 4.11125 1.2662 4.01045 1.00401 4.01273C0.741809 4.01501 0.490997 4.12018 0.305589 4.30559C0.12018 4.491 0.0150115 4.74181 0.0127331 5.00401C0.0104547 5.2662 0.111249 5.51881 0.293407 5.70741L3.29341 8.70741C3.48093 8.89488 3.73524 9.00019 4.00041 9.00019C4.26557 9.00019 4.51988 8.89488 4.70741 8.70741L11.7074 1.70741C11.8896 1.5188 11.9904 1.2662 11.9881 1.00401C11.9858 0.741809 11.8806 0.490997 11.6952 0.305588C11.5098 0.12018 11.259 0.0150115 10.9968 0.0127331C10.7346 0.0104547 10.482 0.111249 10.2934 0.293407Z" fill="#0a1a5d"/>
</svg>
