<svg width="109" height="25" viewBox="0 0 109 25" fill="none" xmlns="http://www.w3.org/2000/svg">
<path fill-rule="evenodd" clip-rule="evenodd" d="M106.087 14.0259C106.087 12.6224 105.26 11.5658 103.955 11.5658C102.65 11.5658 101.823 12.6224 101.823 14.0259C101.823 15.4293 102.65 16.4859 103.955 16.4859C105.263 16.4886 106.087 15.4319 106.087 14.0259ZM106.023 10.624V6.94735C106.023 6.70455 106.185 6.49376 106.42 6.43239L108.37 5.91211V18.3535H106.207V17.297C105.663 18.0894 104.686 18.5536 103.464 18.5536C100.953 18.5536 99.4831 16.5392 99.4831 14.0286C99.4831 11.5178 100.953 9.50341 103.464 9.50341C104.683 9.50074 105.577 10.029 106.023 10.624ZM92.7116 9.69816V10.7548C93.1089 10.0103 94.0004 9.49807 95.2884 9.49807C97.3702 9.49807 98.4769 10.8855 98.4769 12.9506V18.3535H96.132V13.2175C96.132 12.2088 95.7027 11.5151 94.6618 11.5151C93.5222 11.5151 92.8956 12.2409 92.8956 13.3989V18.3535H90.5507V9.69816H92.7116ZM85.0673 18.5536C82.5406 18.5536 81.1345 17.4624 81.1345 14.6555V9.69816H83.4797V14.6876C83.4797 15.8935 84.0241 16.4538 85.0646 16.4538C86.1052 16.4538 86.6495 15.8909 86.6495 14.6876V9.69816H88.9948V14.6528C89.0001 17.4624 87.594 18.5536 85.0673 18.5536ZM73.3916 14.0259C73.3916 15.5787 74.3495 16.4859 75.5875 16.4859C76.8255 16.4859 77.7834 15.576 77.7834 14.0259C77.7834 12.4757 76.8255 11.5658 75.5875 11.5658C74.3522 11.5658 73.3916 12.473 73.3916 14.0259ZM75.5901 18.5536C72.8153 18.5536 71.0463 16.4886 71.0463 14.0286C71.0463 11.5686 72.8126 9.50341 75.5901 9.50341C78.365 9.50341 80.1339 11.5686 80.1339 14.0286C80.1313 16.4886 78.365 18.5536 75.5901 18.5536ZM63.8985 14.0259C63.8985 15.4293 64.7256 16.4859 66.0303 16.4859C67.335 16.4859 68.1621 15.4293 68.1621 14.0259C68.1621 12.6224 67.335 11.5658 66.0303 11.5658C64.7256 11.5658 63.8985 12.6224 63.8985 14.0259ZM63.9651 17.4303V21.0296C63.9651 21.2725 63.8024 21.4832 63.5676 21.5446L61.6199 22.0569V9.69816H63.7837V10.7548C64.328 9.96234 65.3045 9.49807 66.5266 9.49807C69.0372 9.49807 70.5074 11.5125 70.5074 14.0232C70.5074 16.5339 69.0372 18.5483 66.5266 18.5483C65.3019 18.5536 64.4108 18.0254 63.9651 17.4303ZM54.6534 13.4309V18.3535H52.3082V13.2175C52.3082 12.2596 51.9613 11.5151 50.9207 11.5151C49.8295 11.5151 49.2345 12.2249 49.2345 13.3829V18.3562H46.8892V9.69816H49.0531V10.7548C49.4506 10.0103 50.3098 9.49807 51.5477 9.49807C52.7217 9.49807 53.5622 9.95967 54.0585 10.72C54.8188 9.87692 55.694 9.49807 56.932 9.49807C59.0131 9.49807 60.0697 10.9362 60.0697 12.9506V18.3535H57.7244V13.2175C57.7244 12.2596 57.3776 11.5151 56.337 11.5151C55.2298 11.5151 54.6534 12.2249 54.6534 13.4309ZM39.0636 14.0259C39.0636 15.5787 40.0215 16.4859 41.2595 16.4859C42.4975 16.4859 43.4554 15.576 43.4554 14.0259C43.4554 12.4757 42.4975 11.5658 41.2595 11.5658C40.0215 11.5658 39.0636 12.473 39.0636 14.0259ZM41.2595 18.5536C38.4846 18.5536 36.7157 16.4886 36.7157 14.0286C36.7157 11.5686 38.4819 9.50341 41.2595 9.50341C44.037 9.50341 45.8033 11.5686 45.8033 14.0286C45.8033 16.4886 44.0343 18.5536 41.2595 18.5536ZM24.5464 12.473C24.5464 8.80702 27.0731 6.37637 30.4429 6.37637C33.3672 6.37637 35.6804 8.11064 36.126 10.9682H33.5486C33.2018 9.49807 32.0118 8.67094 30.4429 8.67094C28.2951 8.67094 27.0891 10.1571 27.0891 12.4703C27.0891 14.7836 28.2951 16.2697 30.4429 16.2697C32.0118 16.2697 33.2018 15.4426 33.5486 13.9725H36.126C35.6804 16.8301 33.3672 18.5643 30.4429 18.5643C27.0731 18.5696 24.5464 16.1416 24.5464 12.473Z" fill="#A3461E"/>
<path fill-rule="evenodd" clip-rule="evenodd" d="M1.4671 19.0797C0.869438 18.7141 0.503906 18.0632 0.503906 17.3641V13.4606C0.503906 13.3112 0.543928 13.1672 0.618635 13.0391C0.850761 12.6388 1.36571 12.5028 1.76592 12.7376L10.5761 17.8737C11.091 18.1752 11.4085 18.7249 11.4085 19.3225V23.3674C11.4085 23.5514 11.3578 23.7355 11.2618 23.893C10.9709 24.3679 10.3519 24.5173 9.87698 24.2265L1.4671 19.0797ZM14.5996 11.6676C15.1145 11.9691 15.432 12.5188 15.432 13.1164V21.3235C15.432 21.5664 15.3012 21.7905 15.0905 21.9079L13.1614 22.9938C13.1374 23.0072 13.1108 23.0178 13.0841 23.0259V18.4687C13.0841 17.879 12.7746 17.3321 12.2676 17.0279L4.53009 12.3987V7.2546C4.53009 7.10518 4.57012 6.96111 4.64482 6.83304C4.87695 6.43281 5.3919 6.29674 5.79211 6.53153L14.5996 11.6676ZM18.455 5.6057C18.9726 5.90453 19.2901 6.4595 19.2901 7.05716V19.045C19.2901 19.2905 19.154 19.5172 18.938 19.6346L17.1102 20.6218V12.276C17.1102 11.6864 16.8008 11.142 16.2965 10.8378L8.38819 6.09397V1.21398C8.38819 1.06457 8.42821 0.920489 8.50025 0.792419C8.73238 0.392201 9.24732 0.256128 9.64755 0.488254L18.455 5.6057Z" fill="#A3461E"/>
</svg>
