<svg width="63" height="31" viewBox="0 0 63 31" fill="none" xmlns="http://www.w3.org/2000/svg">
<path fill-rule="evenodd" clip-rule="evenodd" d="M38.8513 0.375L24.4352 30.375H23.3675L37.7836 0.375H38.8513ZM40.7134 10.3061C40.7134 9.466 41.0338 8.78286 41.6735 8.25759C42.3315 7.73255 43.1761 7.46991 44.2075 7.46991C44.8837 7.46991 45.5328 7.53992 46.1549 7.67993C46.7953 7.81994 47.5418 8.09115 48.3955 8.49427L47.9157 9.38695C47.1334 9.00169 46.4663 8.73048 45.9152 8.57284C45.3635 8.43284 44.8034 8.36283 44.2346 8.36283C43.4699 8.36283 42.8737 8.53808 42.4471 8.8881C42.0029 9.23813 41.7804 9.70221 41.7804 10.2799C41.7804 10.8401 41.9579 11.3216 42.3139 11.7243C42.6873 12.1095 43.5141 12.6696 44.7947 13.4049C45.9507 14.0704 46.7863 14.6392 47.3022 15.1119C47.8357 15.6022 48.2267 16.1274 48.4758 16.6877C48.7065 17.248 48.8224 17.9221 48.8224 18.71C48.8224 20.2682 48.3868 21.5023 47.5157 22.4129C46.6441 23.3058 45.4254 23.752 43.8612 23.752C42.3497 23.752 41.14 23.3232 40.2331 22.4658C39.3438 21.625 38.8993 20.4961 38.8993 19.0772C38.8993 17.7466 39.2816 16.6615 40.0466 15.8212C40.7932 14.9633 41.9934 14.3242 43.6474 13.9039C42.5451 13.2913 41.7804 12.7134 41.3538 12.1705C40.9264 11.6104 40.7134 10.989 40.7134 10.3061ZM52.6122 8.55539L56.7214 14.962L60.884 8.55539H62.0317L57.3088 15.7233L62.4047 23.5475H61.2041L56.6948 16.5637L52.1052 23.5475H50.9316L56.0545 15.7233L51.4116 8.55539H52.6122ZM42.2243 15.2157C41.6901 15.4781 41.2626 15.793 40.9422 16.16C40.6214 16.51 40.381 16.93 40.221 17.4194C40.043 17.9091 39.9539 18.4601 39.9539 19.0719C39.9539 20.2094 40.3101 21.1185 41.0221 21.801C41.734 22.4825 42.6869 22.8239 43.8796 22.8239C45.1079 22.8239 46.0608 22.4744 46.7368 21.7744C47.4138 21.0569 47.7518 20.0255 47.7518 18.6789C47.7518 17.7693 47.5024 16.9824 47.0039 16.3177C46.5235 15.6531 45.6957 15.032 44.5207 14.4547C43.5058 14.6997 42.7407 14.9533 42.2243 15.2157ZM7.72499 7.67993C8.36517 7.81994 9.11176 8.09115 9.96572 8.49427L9.48541 9.38695C8.70278 9.00169 8.036 8.73048 7.48483 8.57284C6.93365 8.43284 6.37328 8.36283 5.80422 8.36283C5.03973 8.36283 4.44381 8.53808 4.01718 8.8881C3.57218 9.23813 3.35041 9.70221 3.35041 10.2799C3.35041 10.8401 3.52792 11.3216 3.88393 11.7243C4.2571 12.1095 5.08422 12.6696 6.36457 13.4049C7.52038 14.0704 8.35621 14.6392 8.87159 15.1119C9.40536 15.6022 9.79666 16.1274 10.0455 16.6877C10.2767 17.248 10.3923 17.9221 10.3923 18.71C10.3923 20.2682 9.95653 21.5023 9.08539 22.4129C8.214 23.3058 6.99557 23.752 5.43079 23.752C3.91924 23.752 2.70998 23.3232 1.80304 22.4658C0.913757 21.625 0.469238 20.4961 0.469238 19.0772C0.469238 17.7466 0.851606 16.6615 1.61633 15.8212C2.36316 14.9633 3.56346 14.3242 5.21747 13.9039C4.11487 13.2913 3.35039 12.7134 2.92329 12.1705C2.49642 11.6105 2.28311 10.989 2.28311 10.3061C2.28311 9.466 2.60332 8.78286 3.24349 8.25759C3.90156 7.73255 4.7461 7.46991 5.77759 7.46991C6.45335 7.46991 7.10247 7.53991 7.72499 7.67993ZM3.8097 15.2157C3.27559 15.4781 2.84849 15.793 2.52768 16.16C2.20736 16.51 1.96694 16.93 1.80691 17.4194C1.62871 17.9091 1.53985 18.4601 1.53985 19.0719C1.53985 20.2094 1.89576 21.1185 2.60807 21.801C3.31989 22.4825 4.27262 22.8239 5.46553 22.8239C6.69379 22.8239 7.64628 22.4744 8.32276 21.7744C8.99923 21.0569 9.33771 20.0255 9.33771 18.6789C9.33771 17.7693 9.08833 16.9824 8.58982 16.3177C8.10922 15.6531 7.28117 15.032 6.10642 14.4547C5.09171 14.6997 4.3259 14.9533 3.8097 15.2157ZM23.8628 8.55539L18.7909 17.7454V23.5475H17.696V17.8237L12.5975 8.55539H13.8253L18.257 16.7474L22.7148 8.55539H23.8628Z" fill="#A3461E"/>
</svg>
