<svg width="77" height="26" viewBox="0 0 77 26" fill="none" xmlns="http://www.w3.org/2000/svg">
<path fill-rule="evenodd" clip-rule="evenodd" d="M0.187012 5.875C0.187012 3.11357 2.42559 0.875 5.18701 0.875H7.69246V6.63966H10.1993V0.875H20.187C22.9484 0.875 25.187 3.11357 25.187 5.875V20.875C25.187 23.6364 22.9484 25.875 20.187 25.875H5.18701C2.42559 25.875 0.187012 23.6364 0.187012 20.875V10.9634H14.4075C14.9089 10.9634 15.3029 11.3582 15.3029 11.8606V15.1621C15.3029 15.6646 14.9089 16.0594 14.4075 16.0594H11.0949C10.5935 16.0594 10.1996 15.6646 10.1996 15.1621V12.7578H7.69275V15.1801C7.69275 17.0641 9.21477 18.5894 11.0949 18.5894H14.4075C16.2876 18.5894 17.8098 17.0641 17.8098 15.1801V11.8606C17.8098 9.97653 16.2876 8.45134 14.4075 8.45134H0.187012V5.875Z" fill="#A3461E"/>
<path d="M64.537 20.9655C64.4296 20.8594 64.3867 20.7532 64.3867 20.6046C64.3867 20.4561 64.4296 20.3287 64.537 20.2015L68.5727 14.8744L64.8375 9.86573C64.7516 9.73839 64.6872 9.61105 64.6872 9.46249C64.6872 9.31393 64.7301 9.20781 64.8375 9.10169C64.9448 8.99558 65.0521 8.95312 65.2025 8.95312H67.2847C67.4565 8.95312 67.5852 8.99558 67.6711 9.05925C67.757 9.12291 67.8429 9.22903 67.9502 9.35638L70.5907 12.837L73.2097 9.35638C73.2311 9.33515 73.2741 9.27148 73.3814 9.14414C73.4887 9.0168 73.639 8.95312 73.8751 8.95312H75.8931C76.0434 8.95312 76.1507 8.99558 76.258 9.10169C76.3439 9.20781 76.4082 9.31393 76.4082 9.44126C76.4082 9.58983 76.3654 9.73839 76.258 9.86573L72.4799 14.8956L76.5371 20.2015C76.623 20.3287 76.6874 20.4561 76.6874 20.6046C76.6874 20.7532 76.6445 20.8594 76.5371 20.9655C76.4297 21.0716 76.3224 21.114 76.1721 21.114H74.004C73.7464 21.114 73.5317 20.9867 73.36 20.732L70.5262 17.0391L67.6711 20.732C67.4993 20.9867 67.2847 21.114 67.0271 21.114H64.9233C64.7516 21.114 64.6228 21.0716 64.537 20.9655Z" fill="#A3461E"/>
<path d="M47.3119 14.1962C47.2685 12.5236 46.7478 11.2094 45.8798 10.1802C45.0119 9.15088 43.775 8.63626 42.1693 8.63626C40.6288 8.63626 39.4136 9.15088 38.5239 10.2016V4.94804C38.5239 4.60496 38.1768 4.39053 37.873 4.51918L35.3125 5.56989V20.6015C35.3125 20.7515 35.3776 20.9017 35.4861 21.0089C35.5946 21.1162 35.7248 21.1804 35.8984 21.1804H37.8079C37.9815 21.1804 38.1334 21.1162 38.2419 21.0089C38.3504 20.9017 38.4154 20.773 38.4154 20.6015V19.7223C39.2834 20.8374 40.5636 21.3949 42.2128 21.3949C43.8184 21.3949 45.0552 20.8803 45.9232 19.8724C46.7911 18.8645 47.2469 17.4923 47.3119 15.7983C47.366 15.2642 47.3119 14.7254 47.3119 14.1962ZM43.9703 15.7124C43.8619 17.7924 42.9505 18.8217 41.258 18.8217C40.3466 18.8217 39.674 18.5215 39.2183 17.9425C38.7626 17.3635 38.5239 16.6559 38.5023 15.8197C38.4805 15.6267 38.4805 15.3265 38.4805 14.919C38.4805 14.4902 38.4805 14.19 38.5023 13.997C38.5239 13.2036 38.7843 12.5389 39.24 11.9814C39.6956 11.4239 40.3684 11.1451 41.2363 11.1451C42.9505 11.1451 43.8401 12.1744 43.9486 14.2543C43.9703 14.4044 43.9703 14.6403 43.9703 14.9619C43.992 15.3265 43.992 15.5624 43.9703 15.7124Z" fill="#A3461E"/>
<path d="M62.1397 18.4088H53.644L55.9379 15.348C56.2352 14.9628 55.9592 14.4062 55.4707 14.4062H52.4972L49.6512 18.1091C49.5662 18.2375 49.4813 18.3659 49.3963 18.4944C49.3325 18.6228 49.29 18.794 49.29 18.9866V20.6561C49.29 20.8274 49.3325 20.9773 49.4388 21.0843C49.5449 21.1913 49.6724 21.2555 49.8423 21.2555H60.7379C61.0352 21.2555 61.3113 21.1056 61.4813 20.8701L62.5857 19.3719C62.883 18.9439 62.6069 18.4088 62.1397 18.4088Z" fill="#A3461E"/>
<path d="M49.4464 7.27007H58.0305L55.7128 10.2684C55.4123 10.6458 55.6913 11.1909 56.1849 11.1909H59.1893L62.065 7.56361C62.1508 7.43781 62.2366 7.31199 62.3225 7.18619C62.3869 7.06039 62.4298 6.89266 62.4298 6.70396V5.06852C62.4298 4.90078 62.3869 4.75402 62.2795 4.64918C62.1723 4.54435 62.0435 4.48145 61.8718 4.48145H50.8628C50.5623 4.48145 50.2834 4.62822 50.1116 4.85886L48.9958 6.32655C48.6953 6.72492 48.9743 7.27007 49.4464 7.27007Z" fill="#A3461E"/>
</svg>
