<svg width="91" height="91" viewBox="0 0 91 91" fill="none" xmlns="http://www.w3.org/2000/svg">
<path d="M90.337 38.3685C90.1988 38.1862 90.0205 38.0381 89.8158 37.9358C89.6112 37.8335 89.3857 37.7796 89.157 37.7785H74.157C73.8285 32.3016 71.7498 27.0749 68.227 22.8685L51.877 3.43849C51.0784 2.47751 50.078 1.70418 48.9468 1.17342C47.8156 0.642672 46.5815 0.367523 45.332 0.367523C44.0825 0.367523 42.8483 0.642672 41.7171 1.17342C40.586 1.70418 39.5856 2.47751 38.787 3.43849L22.477 22.8385C18.9542 27.0449 16.8754 32.2716 16.547 37.7485H1.54697C1.31056 37.7484 1.07753 37.8046 0.867129 37.9124C0.656731 38.0202 0.475006 38.1766 0.336968 38.3685C0.197011 38.5528 0.100115 38.7662 0.0533933 38.9929C0.0066714 39.2196 0.0113098 39.4538 0.0669679 39.6785L12.167 89.2085C12.2437 89.5382 12.4297 89.8323 12.6948 90.0429C12.9599 90.2535 13.2884 90.3683 13.627 90.3685H77.047C77.3855 90.3683 77.7141 90.2535 77.9791 90.0429C78.2442 89.8323 78.4302 89.5382 78.507 89.2085L90.627 39.6585C90.6767 39.4354 90.6766 39.204 90.6264 38.981C90.5763 38.758 90.4774 38.5488 90.337 38.3685V38.3685ZM3.41697 40.8085H16.507C16.507 40.8885 16.507 40.9585 16.507 41.0285C16.507 41.4752 16.547 41.9218 16.627 42.3685C16.627 42.5185 16.627 42.6585 16.677 42.8085C16.747 43.3485 16.827 43.8785 16.937 44.4085L25.457 87.2985H14.797L3.41697 40.8085ZM63.207 39.2985C63.2094 40.2824 63.1123 41.2641 62.917 42.2285L54.837 87.3185H36.257L27.747 42.1985C27.5557 41.2404 27.4619 40.2655 27.467 39.2885C27.4791 35.9388 28.6685 32.7 30.827 30.1385L43.497 15.0585C43.7232 14.7893 44.0056 14.5729 44.3243 14.4244C44.643 14.2759 44.9904 14.199 45.342 14.199C45.6936 14.199 46.0409 14.2759 46.3597 14.4244C46.6784 14.5729 46.9608 14.7893 47.187 15.0585L59.857 30.1385C60.1236 30.4585 60.377 30.7918 60.617 31.1385C62.2975 33.5287 63.2049 36.3766 63.217 39.2985H63.207ZM65.867 42.7985C66.3677 40.232 66.2919 37.5863 65.6451 35.0527C64.9983 32.5191 63.7966 30.1609 62.127 28.1485L49.467 13.0885C48.962 12.4854 48.331 12.0004 47.6183 11.6676C46.9056 11.3348 46.1285 11.1623 45.342 11.1623C44.5554 11.1623 43.7784 11.3348 43.0657 11.6676C42.353 12.0004 41.7219 12.4854 41.217 13.0885L28.547 28.1485C26.8682 30.1536 25.6606 32.5098 25.0134 35.0435C24.3661 37.5772 24.2956 40.2239 24.807 42.7885L33.217 87.3085H28.537L19.897 43.8085C19.2395 40.4802 19.3338 37.0471 20.1729 33.7599C21.012 30.4727 22.5747 27.4145 24.747 24.8085L41.067 5.42849C41.5878 4.80298 42.2399 4.29969 42.9769 3.9543C43.714 3.60891 44.518 3.42987 45.332 3.42987C46.1459 3.42987 46.9499 3.60891 47.687 3.9543C48.4241 4.29969 49.0761 4.80298 49.597 5.42849L65.927 24.8385C68.1004 27.4437 69.6639 30.502 70.5031 33.7894C71.3423 37.0768 71.4358 40.5102 70.777 43.8385L62.137 87.3185H57.887L65.867 42.7985ZM75.867 87.3085H65.197L73.717 44.4185C73.827 43.8885 73.907 43.3485 73.977 42.8085C73.977 42.6585 73.977 42.5185 74.027 42.3685C74.0803 41.9285 74.1203 41.4852 74.147 41.0385C74.147 40.9585 74.147 40.8785 74.147 40.7985H87.257L75.867 87.3085Z" fill="white"/>
<g clip-path="url(#clip0)">
<path fill-rule="evenodd" clip-rule="evenodd" d="M45.2579 50.8739L33.9849 44.2156L45.2579 60.1035L56.5379 44.2156L45.2556 50.8739H45.2579ZM45.4278 23.3685L34.1548 42.0758L45.4278 48.7409L56.7009 42.0827L45.4278 23.3685Z" fill="white"/>
</g>
<defs>
<clipPath id="clip0">
<path d="M33.9849 23.3685H56.7009V61.2285H33.9849V23.3685Z" fill="white"/>
</clipPath>
</defs>
</svg>
