<svg width="61" height="50" viewBox="0 0 61 50" fill="none" xmlns="http://www.w3.org/2000/svg">
<path d="M33.5492 10.5957C33.1508 8.03924 32.0426 5.646 30.3507 3.68848C28.5052 5.50185 27.2059 7.79699 26.6008 10.3126C26.482 13.2301 28.0012 14.1755 29.9195 14.2536C31.8378 14.3318 33.4304 13.5131 33.5492 10.5957Z" fill="#0a1a5d"/>
<path d="M24.6702 11.1166C23.5432 8.42231 18.8495 6.21191 18.8495 6.21191C17.9452 8.63594 17.7396 11.2652 18.2563 13.8003C19.3833 16.4946 21.1599 16.7074 22.9311 15.9663C23.4084 15.8185 23.8449 15.5617 24.2059 15.2162C24.567 14.8707 24.8428 14.446 25.0115 13.9756C25.1802 13.5053 25.2371 13.0021 25.1779 12.5059C25.1187 12.0097 24.9449 11.5341 24.6702 11.1166Z" fill="#0a1a5d"/>
<path d="M17.3267 20.4781C17.6967 20.1422 17.9835 19.7248 18.1644 19.259C18.3453 18.7932 18.4154 18.2917 18.3692 17.7941C18.3229 17.2965 18.1616 16.8165 17.8979 16.392C17.6343 15.9675 17.2755 15.6102 16.85 15.3482C14.6338 14.013 12.0874 13.3269 9.50049 13.368C9.70713 15.9469 10.6337 18.416 12.1747 20.4942C12.4762 20.8927 12.8662 21.2157 13.314 21.4375C13.7618 21.6594 14.255 21.7741 14.7547 21.7725C15.2545 21.7709 15.747 21.6532 16.1933 21.4285C16.6397 21.2039 17.0277 20.8785 17.3267 20.4781Z" fill="#0a1a5d"/>
<path d="M9.38938 30.4132C12.2254 31.1065 13.4526 29.8038 13.9085 27.9395C14.3643 26.0753 13.8762 24.3522 11.0401 23.6591C8.45545 23.5443 5.89048 24.1576 3.63721 25.429C3.63721 25.429 6.55284 29.7201 9.38938 30.4132Z" fill="#0a1a5d"/>
<path d="M3.8374 37.207C6.03491 38.5725 8.57166 39.2935 11.1588 39.2881C14.022 38.7155 14.5824 37.0162 14.2059 35.1335C13.8293 33.2509 12.6586 31.8977 9.7955 32.4708C6.93233 33.0438 3.8374 37.207 3.8374 37.207Z" fill="#0a1a5d"/>
<path d="M12.4007 40.9794C10.654 42.888 9.47825 45.2486 9.00732 47.7926C11.5762 48.0997 14.1797 47.6793 16.5215 46.5794C16.9717 46.3626 17.3654 46.0441 17.6714 45.649C17.9774 45.2539 18.1873 44.7931 18.2846 44.3029C18.3818 43.8127 18.3637 43.3066 18.2317 42.8246C18.0997 42.3426 17.8574 41.8979 17.524 41.5257C17.2678 41.0966 16.9153 40.733 16.4944 40.4635C16.0735 40.1941 15.5957 40.0262 15.0987 39.9733C14.6018 39.9203 14.0993 39.9836 13.6311 40.1582C13.1628 40.3329 12.7416 40.614 12.4007 40.9794Z" fill="#0a1a5d"/>
<path d="M36.7272 15.5548C37.1512 15.8192 37.6309 15.9813 38.1283 16.0284C38.6258 16.0755 39.1273 16.0062 39.5934 15.8262C40.0595 15.6461 40.4773 15.3601 40.8139 14.9909C41.1505 14.6216 41.3966 14.1791 41.5328 13.6983C42.2137 11.2025 42.1803 8.56564 41.4363 6.08789C41.4363 6.08789 36.6086 7.98805 35.3081 10.6025C35.0069 11.0011 34.8025 11.4644 34.7111 11.9556C34.6197 12.4468 34.6438 12.9526 34.7814 13.4329C34.919 13.9132 35.1665 14.355 35.5042 14.7232C35.8419 15.0915 36.2606 15.3762 36.7272 15.5548Z" fill="#0a1a5d"/>
<path d="M47.7462 20.0838C49.4214 18.1125 50.5097 15.7105 50.8869 13.1512C48.3085 12.9387 45.722 13.4545 43.4223 14.6398C42.9803 14.873 42.5987 15.2058 42.3074 15.6119C42.0162 16.018 41.8234 16.4862 41.7442 16.9797C41.6651 17.4731 41.7018 17.9781 41.8515 18.4549C42.0011 18.9317 42.2596 19.3672 42.6065 19.7269C42.8783 20.1462 43.244 20.4966 43.6745 20.7502C44.1051 21.0039 44.5887 21.154 45.0872 21.1886C45.5858 21.2232 46.0855 21.1414 46.547 20.9497C47.0085 20.7579 47.419 20.4615 47.7462 20.0838Z" fill="#0a1a5d"/>
<path d="M49.0508 21.7462C46.2098 22.4206 45.7105 24.1389 46.154 26.0069C46.5976 27.875 47.8158 29.1854 50.6568 28.511C53.4977 27.8367 56.442 23.5646 56.442 23.5646C54.1971 22.2784 51.6362 21.6484 49.0508 21.7462Z" fill="#0a1a5d"/>
<path d="M46.7091 33.2023C46.3182 35.082 46.8657 36.7855 49.7244 37.38C52.3115 37.4051 54.8538 36.7034 57.0616 35.3547C57.0616 35.3547 53.9985 31.1671 51.1398 30.5728C48.281 29.9785 47.0998 31.3226 46.7091 33.2023Z" fill="#0a1a5d"/>
<path d="M49.2884 39.4451C48.9507 39.0767 48.5319 38.792 48.0652 38.6134C47.5985 38.4347 47.0966 38.3671 46.5993 38.4157C46.1019 38.4644 45.6227 38.6281 45.1995 38.8938C44.7763 39.1596 44.4207 39.5201 44.1608 39.9469C43.8241 40.3162 43.578 40.7588 43.4418 41.2396C43.3056 41.7204 43.2831 42.2263 43.376 42.7173C43.469 43.2083 43.6749 43.671 43.9774 44.0687C44.28 44.4665 44.6708 44.7884 45.1192 45.0091C47.4513 46.1294 50.0511 46.5723 52.6226 46.2875C52.1738 43.7395 51.0185 41.3687 49.2884 39.4451Z" fill="#0a1a5d"/>
<path d="M35.4685 6.74292C36.5761 6.78798 37.4948 6.3153 37.564 4.63068C37.334 3.15426 36.694 1.77209 35.7169 0.641602C34.6514 1.68879 33.9013 3.0141 33.5521 4.46666C33.4835 6.15191 34.3608 6.69786 35.4685 6.74292Z" fill="#0a1a5d"/>
<path d="M24.9846 7.44532C25.2657 7.38014 25.5278 7.25049 25.7502 7.06659C25.9725 6.8827 26.1491 6.64961 26.2659 6.38574C26.3827 6.12188 26.4365 5.83447 26.4231 5.54622C26.4097 5.25797 26.3294 4.97679 26.1887 4.7249C25.652 3.12662 23.0413 1.65723 23.0413 1.65723C22.4193 3.0155 22.1911 4.52113 22.3828 6.00271C22.9195 7.60114 23.9337 7.79825 24.9846 7.44532Z" fill="#0a1a5d"/>
<path d="M12.4673 11.4292C12.6064 11.682 12.8025 11.899 13.0399 12.063C13.2773 12.227 13.5496 12.3335 13.8353 12.3742C14.1209 12.4149 14.4121 12.3886 14.6859 12.2973C14.9596 12.2061 15.2084 12.0524 15.4126 11.8485C15.6519 11.6873 15.8505 11.4726 15.9926 11.2215C16.1348 10.9704 16.2165 10.6896 16.2315 10.4014C16.2464 10.1132 16.1942 9.8255 16.0788 9.561C15.9634 9.2965 15.7881 9.06246 15.5667 8.87738C14.4114 7.93019 13.0133 7.32641 11.5317 7.13477C11.4354 8.62561 11.7595 10.1136 12.4673 11.4292Z" fill="#0a1a5d"/>
<path d="M5.58535 21.3439C5.81112 21.5236 6.07559 21.6484 6.35787 21.7083C6.64015 21.7682 6.93249 21.7616 7.21179 21.6891C7.4911 21.6166 7.74971 21.4801 7.96719 21.2905C8.18467 21.1008 8.35506 20.8632 8.4649 20.5963C8.62368 20.3554 8.72425 20.0808 8.75866 19.7943C8.79307 19.5078 8.76038 19.2172 8.66317 18.9455C8.56596 18.6738 8.40689 18.4285 8.19854 18.2288C7.99018 18.0292 7.73826 17.8808 7.46266 17.7952C6.03168 17.3661 4.50897 17.3474 3.06787 17.7412C3.55317 19.1541 4.42543 20.4024 5.58535 21.3439Z" fill="#0a1a5d"/>
<path d="M6.52289 31.3465C6.61222 30.2415 6.17626 29.3047 4.49589 29.1689C3.01177 29.3397 1.60545 29.9239 0.437012 30.8547C1.44083 31.9609 2.73502 32.763 4.17226 33.1698C5.85326 33.3062 6.43371 32.4514 6.52289 31.3465Z" fill="#0a1a5d"/>
<path d="M5.89596 40.8648C4.32399 41.4743 2.97607 44.1499 2.97607 44.1499C4.36149 44.7089 5.87602 44.8676 7.34723 44.6081C8.9192 43.9987 9.06951 42.9764 8.66884 41.9427C8.59082 41.6649 8.44927 41.409 8.25535 41.1953C8.06144 40.9816 7.82048 40.816 7.55153 40.7114C7.28257 40.6069 6.99298 40.5663 6.70565 40.5929C6.41832 40.6195 6.14112 40.7126 5.89596 40.8648Z" fill="#0a1a5d"/>
<path d="M47.8672 10.4635C48.2101 9.00942 48.138 7.48828 47.6589 6.07324C47.6589 6.07324 44.9109 7.26644 44.2129 8.80122C44.0746 9.0446 43.9885 9.31412 43.9601 9.59261C43.9317 9.8711 43.9616 10.1525 44.048 10.4188C44.1343 10.685 44.2752 10.9304 44.4616 11.1393C44.648 11.3481 44.8759 11.5158 45.1307 11.6317C45.3855 11.7476 45.6617 11.8092 45.9416 11.8124C46.2215 11.8157 46.499 11.7607 46.7565 11.6508C47.0139 11.5408 47.2457 11.3785 47.4369 11.1741C47.6282 10.9697 47.7748 10.7277 47.8673 10.4635H47.8672Z" fill="#0a1a5d"/>
<path d="M51.8366 20.1276C52.0089 20.3591 52.2327 20.5474 52.4902 20.6775C52.7478 20.8077 53.032 20.8761 53.3206 20.8775C53.6092 20.8789 53.8941 20.8131 54.1529 20.6854C54.4117 20.5577 54.6372 20.3716 54.8117 20.1418C55.7035 18.9432 56.2409 17.5184 56.3627 16.0295C54.869 16.0033 53.3979 16.397 52.1169 17.1658C51.871 17.3166 51.6634 17.5227 51.5107 17.7675C51.3581 18.0124 51.2644 18.2894 51.2373 18.5767C51.2101 18.864 51.2501 19.1536 51.3541 19.4228C51.4581 19.692 51.6233 19.9332 51.8366 20.1276Z" fill="#0a1a5d"/>
<path d="M56.0883 27.178C54.4928 27.7231 54.3011 28.7378 54.6595 29.7875C54.7262 30.0682 54.8573 30.3296 55.0423 30.551C55.2274 30.7724 55.4614 30.9477 55.7259 31.0631C55.9904 31.1785 56.2782 31.2308 56.5663 31.2159C56.8545 31.2009 57.1353 31.1192 57.3864 30.977C58.9819 30.4319 60.4374 27.8134 60.4374 27.8134C59.0758 27.1986 57.5689 26.9784 56.0883 27.178Z" fill="#0a1a5d"/>
<path d="M54.8662 38.6562C53.1961 38.4226 52.5671 39.2419 52.4135 40.3399C52.2599 41.438 52.6401 42.3986 54.3099 42.6322C55.8015 42.5483 57.2395 42.0473 58.4603 41.1862C57.5228 40.023 56.2775 39.1464 54.8662 38.6562Z" fill="#0a1a5d"/>
<path d="M39.6737 43.6453C39.3981 43.7309 39.1462 43.8794 38.9379 44.0791C38.7296 44.2787 38.5706 44.5241 38.4734 44.7958C38.3762 45.0675 38.3436 45.3581 38.378 45.6446C38.4125 45.9311 38.5131 46.2057 38.6719 46.4466C39.3241 48.0014 42.0355 49.2757 42.0355 49.2757C42.5564 47.8755 42.6738 46.3571 42.3741 44.8935C41.722 43.3389 40.6959 43.2165 39.6737 43.6453Z" fill="#0a1a5d"/>
</svg>
