<svg width="74" height="27" viewBox="0 0 74 27" fill="none" xmlns="http://www.w3.org/2000/svg">
<path fill-rule="evenodd" clip-rule="evenodd" d="M0.944336 13.9728C0.950269 18.4432 3.09813 22.6409 6.72254 25.2653C6.79007 24.9608 6.82382 24.6104 6.82382 24.2114V10.7034C6.82382 9.63138 6.59361 8.91118 6.13348 8.54362C5.82673 8.29859 5.22893 8.11506 4.33935 7.99254V6.88945H13.0359V10.5197C13.9255 9.32516 14.6922 8.45203 15.3364 7.9007C16.5634 6.85928 17.8361 6.33837 19.1551 6.33837C20.5355 6.33837 21.5631 6.79811 22.2379 7.717C22.7287 8.36023 22.9747 9.09525 22.9747 9.92226C22.9747 10.688 22.7752 11.3461 22.3764 11.8974C21.8549 12.6325 21.0724 13.0005 20.0294 13.0005C19.0478 13.0005 18.1121 12.3878 17.2225 11.1627C16.7931 10.5807 16.3642 10.2896 15.9348 10.2896C15.1679 10.2896 14.4931 10.78 13.9102 11.7601C13.4501 12.5565 13.2199 13.5214 13.2199 14.6547V23.3384C13.2199 24.778 13.4343 25.7429 13.8638 26.233C14.2932 26.723 15.1833 27.1177 16.5787 26.9677C22.3844 26.7974 28.9205 20.1856 28.9295 13.11C28.9299 5.3932 22.6651 4.12919e-05 14.9369 0C7.20867 4.12919e-05 0.943863 6.256 0.944336 13.9728Z" fill="#A3461E"/>
<path d="M35.1371 21.5H38.1626V15.3281C38.1626 13.9858 39.1428 13.0625 40.478 13.0625C40.897 13.0625 41.4723 13.1335 41.7564 13.2259V10.5412C41.4865 10.4773 41.1101 10.4347 40.8047 10.4347C39.5831 10.4347 38.5817 11.1449 38.1839 12.4943H38.0703V10.5909H35.1371V21.5ZM48.5337 21.5C52.9656 21.5 55.6502 18.7585 55.6502 14.2131C55.6502 9.68182 52.9656 6.95455 48.5763 6.95455H43.3775V21.5H48.5337ZM46.4528 18.8651V9.58949H48.413C51.1403 9.58949 52.582 10.9815 52.582 14.2131C52.582 17.4588 51.1403 18.8651 48.4059 18.8651H46.4528ZM60.9822 21.706C62.5945 21.706 63.6385 21.0028 64.1712 19.9872H64.2564V21.5H67.1257V14.142C67.1257 11.5426 64.924 10.4489 62.495 10.4489C59.8814 10.4489 58.1626 11.6989 57.7436 13.6875L60.5419 13.9148C60.7479 13.1903 61.3942 12.6577 62.4808 12.6577C63.5107 12.6577 64.1001 13.1761 64.1001 14.071V14.1136C64.1001 14.8168 63.3544 14.9091 61.4581 15.0938C59.299 15.2926 57.3601 16.017 57.3601 18.4531C57.3601 20.6122 58.9013 21.706 60.9822 21.706ZM61.8487 19.6179C60.9183 19.6179 60.2507 19.1847 60.2507 18.3537C60.2507 17.5014 60.9538 17.0824 62.0192 16.9332C62.6797 16.8409 63.7592 16.6847 64.1214 16.4432V17.6009C64.1214 18.7443 63.1768 19.6179 61.8487 19.6179ZM69.473 21.5H72.4986V10.5909H69.473V21.5ZM70.9929 9.18466C71.8949 9.18466 72.6335 8.49574 72.6335 7.65057C72.6335 6.8125 71.8949 6.12358 70.9929 6.12358C70.098 6.12358 69.3594 6.8125 69.3594 7.65057C69.3594 8.49574 70.098 9.18466 70.9929 9.18466Z" fill="#A3461E"/>
</svg>
