<svg width="47" height="46" viewBox="0 0 47 46" fill="none" xmlns="http://www.w3.org/2000/svg">
<path d="M23.2837 0C10.5837 0 0.283691 10.3 0.283691 23C0.283691 35.7 10.5837 46 23.2837 46C35.9837 46 46.2837 35.7 46.2837 23C46.2837 10.3 35.9837 0 23.2837 0ZM35.9837 15.7L19.9837 31.7C19.7837 31.9 19.5837 32 19.2837 32C18.9837 32 18.7837 31.9 18.5837 31.7L10.5837 23.7C10.1837 23.3 10.1837 22.7 10.5837 22.3C10.9837 21.9 11.5837 21.9 11.9837 22.3L19.2837 29.6L34.5837 14.3C34.9837 13.9 35.5837 13.9 35.9837 14.3C36.3837 14.7 36.3837 15.3 35.9837 15.7Z" fill="#6AAF14"/>
</svg>
